HIERARCHY
ROOT newVegas:Hips
{
	OFFSET 0.000000 96.479958 0.000000
	CHANNELS 6 Xposition Yposition Zposition Xrotation Yrotation Zrotation
	JOINT newVegas:Pelvis
	{
		OFFSET 0.000000 0.000000 0.000000
		CHANNELS 3 Xrotation Yrotation Zrotation
		JOINT newVegas:LeftUpLeg
		{
			OFFSET 18.735201 -5.666702 -4.541200
			CHANNELS 3 Xrotation Yrotation Zrotation
			JOINT newVegas:LeftLeg
			{
				OFFSET -0.021200 -31.938179 0.493100
				CHANNELS 3 Xrotation Yrotation Zrotation
				JOINT newVegas:LeftFoot
				{
					OFFSET 0.021200 -31.938179 -4.336299
					CHANNELS 3 Xrotation Yrotation Zrotation
					JOINT newVegas:LeftToeBase
					{
						OFFSET 0.943001 -26.722000 15.023500
						CHANNELS 3 Xrotation Yrotation Zrotation
						End Site
						{
							OFFSET 0.000000 30.670183 0.000000
						}
					}
				}
				JOINT newVegas:Left_PantLeg
				{
					OFFSET 0.663870 -9.044666 -1.108900
					CHANNELS 3 Xrotation Yrotation Zrotation
					End Site
					{
						OFFSET 1.415995 20.635357 0.000000
					}
				}
			}
		}
		JOINT newVegas:RightUpLeg
		{
			OFFSET -18.735201 -5.666702 -4.541200
			CHANNELS 3 Xrotation Yrotation Zrotation
			JOINT newVegas:RightLeg
			{
				OFFSET 0.018946 -31.938133 0.493100
				CHANNELS 3 Xrotation Yrotation Zrotation
				JOINT newVegas:RightFoot
				{
					OFFSET -0.018946 -31.938126 -4.336299
					CHANNELS 3 Xrotation Yrotation Zrotation
					JOINT newVegas:RightToeBase
					{
						OFFSET -0.943001 -26.722004 15.023500
						CHANNELS 3 Xrotation Yrotation Zrotation
						End Site
						{
							OFFSET 0.000000 30.670187 0.000000
						}
					}
				}
				JOINT newVegas:Right_PantLeg
				{
					OFFSET -0.661674 -9.044716 -1.108900
					CHANNELS 3 Xrotation Yrotation Zrotation
					End Site
					{
						OFFSET -1.415958 20.635269 0.000000
					}
				}
			}
		}
	}
	JOINT newVegas:Spine
	{
		OFFSET 0.000000 10.199997 -0.299500
		CHANNELS 3 Xrotation Yrotation Zrotation
		JOINT newVegas:Spine1
		{
			OFFSET 0.000000 11.900002 -1.516600
			CHANNELS 3 Xrotation Yrotation Zrotation
			JOINT newVegas:Spine2
			{
				OFFSET 0.000000 13.600006 -2.842500
				CHANNELS 3 Xrotation Yrotation Zrotation
				JOINT newVegas:Neck
				{
					OFFSET 0.000000 9.624100 -2.890100
					CHANNELS 3 Xrotation Yrotation Zrotation
					JOINT newVegas:Head
					{
						OFFSET 0.000000 14.068802 -1.351900
						CHANNELS 3 Xrotation Yrotation Zrotation
						JOINT newVegas:Hair_Back
						{
							OFFSET 0.000000 3.231903 -17.524799
							CHANNELS 3 Xrotation Yrotation Zrotation
							End Site
							{
								OFFSET 0.000000 19.849884 0.000000
							}
						}
						JOINT newVegas:Hair_Front
						{
							OFFSET 0.000000 31.260406 4.573800
							CHANNELS 3 Xrotation Yrotation Zrotation
							JOINT newVegas:Hair_Front1
							{
								OFFSET 0.000000 2.284103 11.993300
								CHANNELS 3 Xrotation Yrotation Zrotation
								JOINT newVegas:Hair_Front2
								{
									OFFSET 0.000000 2.284103 11.993300
									CHANNELS 3 Xrotation Yrotation Zrotation
									End Site
									{
										OFFSET 0.000000 12.208862 0.000000
									}
								}
							}
						}
						JOINT newVegas:Jowel
						{
							OFFSET 0.000000 -7.458206 6.864100
							CHANNELS 3 Xrotation Yrotation Zrotation
							End Site
							{
								OFFSET 0.000000 19.849884 0.000000
							}
						}
					}
				}
				JOINT newVegas:LeftShoulder
				{
					OFFSET 15.263000 10.923401 -0.547700
					CHANNELS 3 Xrotation Yrotation Zrotation
					JOINT newVegas:LeftArm
					{
						OFFSET 25.438599 -2.830597 -13.032500
						CHANNELS 3 Xrotation Yrotation Zrotation
						JOINT newVegas:LeftForeArm
						{
							OFFSET 29.960503 0.000000 0.000000
							CHANNELS 3 Xrotation Yrotation Zrotation
							JOINT newVegas:LeftHand
							{
								OFFSET 27.849251 0.000000 0.000000
								CHANNELS 3 Xrotation Yrotation Zrotation
								JOINT newVegas:LeftHandThumb1
								{
									OFFSET 4.487587 -3.305161 6.305391
									CHANNELS 3 Xrotation Yrotation Zrotation
									JOINT newVegas:LeftHandThumb2
									{
										OFFSET 5.480453 -3.164139 3.164143
										CHANNELS 3 Xrotation Yrotation Zrotation
										JOINT newVegas:LeftHandThumb3
										{
											OFFSET 5.159721 -2.978973 2.978967
											CHANNELS 3 Xrotation Yrotation Zrotation
											End Site
											{
												OFFSET 2.494507 5.926697 1.738678
											}
										}
									}
								}
								JOINT newVegas:LeftHandIndex1
								{
									OFFSET 18.578728 -0.527832 5.208049
									CHANNELS 3 Xrotation Yrotation Zrotation
									JOINT newVegas:LeftHandIndex2
									{
										OFFSET 3.192009 0.000000 0.000000
										CHANNELS 3 Xrotation Yrotation Zrotation
										JOINT newVegas:LeftHandIndex3
										{
											OFFSET 3.835129 0.000000 0.000000
											CHANNELS 3 Xrotation Yrotation Zrotation
											End Site
											{
												OFFSET -0.034599 3.816971 0.371180
											}
										}
									}
								}
								JOINT newVegas:LeftHandMiddle1
								{
									OFFSET 18.476105 0.000000 0.000000
									CHANNELS 3 Xrotation Yrotation Zrotation
									JOINT newVegas:LeftHandMiddle2
									{
										OFFSET 3.324875 0.000000 0.000000
										CHANNELS 3 Xrotation Yrotation Zrotation
										JOINT newVegas:LeftHandMiddle3
										{
											OFFSET 4.596550 0.000000 0.000000
											CHANNELS 3 Xrotation Yrotation Zrotation
											End Site
											{
												OFFSET 0.057701 4.578827 0.399218
											}
										}
									}
								}
								JOINT newVegas:LeftHandRing1
								{
									OFFSET 17.732719 0.121887 -4.201567
									CHANNELS 3 Xrotation Yrotation Zrotation
									JOINT newVegas:LeftHandRing2
									{
										OFFSET 2.733170 0.000000 0.000000
										CHANNELS 3 Xrotation Yrotation Zrotation
										JOINT newVegas:LeftHandRing3
										{
											OFFSET 3.178268 0.000000 0.000000
											CHANNELS 3 Xrotation Yrotation Zrotation
											End Site
											{
												OFFSET 0.119102 3.170624 0.185394
											}
										}
									}
								}
								JOINT newVegas:LeftHandPinky1
								{
									OFFSET 15.989624 -0.606689 -7.535461
									CHANNELS 3 Xrotation Yrotation Zrotation
									JOINT newVegas:LeftHandPinky2
									{
										OFFSET 2.538986 0.000000 0.000000
										CHANNELS 3 Xrotation Yrotation Zrotation
										JOINT newVegas:LeftHandPinky3
										{
											OFFSET 2.593102 0.000000 0.000000
											CHANNELS 3 Xrotation Yrotation Zrotation
											End Site
											{
												OFFSET -0.150902 2.584198 0.152708
											}
										}
									}
								}
							}
							JOINT newVegas:Left_Sleeve
							{
								OFFSET 0.267448 -0.649796 0.577675
								CHANNELS 3 Xrotation Yrotation Zrotation
								End Site
								{
									OFFSET 0.000000 15.991241 0.000000
								}
							}
							JOINT newVegas:Left_CapeC
							{
								OFFSET 15.715958 -8.608795 -6.935905
								CHANNELS 3 Xrotation Yrotation Zrotation
								JOINT newVegas:Left_CapeC1
								{
									OFFSET 0.000000 -8.688499 0.000000
									CHANNELS 3 Xrotation Yrotation Zrotation
									End Site
									{
										OFFSET 0.000000 8.688499 0.000000
									}
								}
							}
						}
						JOINT newVegas:Left_CapeB
						{
							OFFSET 26.118385 -8.608795 -7.079235
							CHANNELS 3 Xrotation Yrotation Zrotation
							JOINT newVegas:Left_CapeB1
							{
								OFFSET 0.000000 -8.688499 0.000000
								CHANNELS 3 Xrotation Yrotation Zrotation
								End Site
								{
									OFFSET 0.000000 8.688499 0.000000
								}
							}
						}
						JOINT newVegas:Left_CapeA
						{
							OFFSET 5.115639 -8.608795 -10.395809
							CHANNELS 3 Xrotation Yrotation Zrotation
							JOINT newVegas:Left_CapeA1
							{
								OFFSET 0.000000 -8.688499 0.000000
								CHANNELS 3 Xrotation Yrotation Zrotation
								End Site
								{
									OFFSET 0.000000 8.688499 0.000000
								}
							}
						}
					}
				}
				JOINT newVegas:RightShoulder
				{
					OFFSET -15.263000 10.923401 -0.547700
					CHANNELS 3 Xrotation Yrotation Zrotation
					JOINT newVegas:RightArm
					{
						OFFSET -25.438599 -2.830597 -13.032500
						CHANNELS 3 Xrotation Yrotation Zrotation
						JOINT newVegas:RightForeArm
						{
							OFFSET -29.960503 0.000000 0.000000
							CHANNELS 3 Xrotation Yrotation Zrotation
							JOINT newVegas:RightHand
							{
								OFFSET -27.849251 0.000000 0.000000
								CHANNELS 3 Xrotation Yrotation Zrotation
								JOINT newVegas:RightHandThumb1
								{
									OFFSET -4.487587 -3.305161 6.305391
									CHANNELS 3 Xrotation Yrotation Zrotation
									JOINT newVegas:RightHandThumb2
									{
										OFFSET -5.480453 -3.164139 3.164143
										CHANNELS 3 Xrotation Yrotation Zrotation
										JOINT newVegas:RightHandThumb3
										{
											OFFSET -5.159721 -2.978973 2.978967
											CHANNELS 3 Xrotation Yrotation Zrotation
											End Site
											{
												OFFSET -2.494507 5.926697 1.738678
											}
										}
									}
								}
								JOINT newVegas:RightHandIndex1
								{
									OFFSET -18.578728 -0.527832 5.208049
									CHANNELS 3 Xrotation Yrotation Zrotation
									JOINT newVegas:RightHandIndex2
									{
										OFFSET -3.192009 0.000000 0.000000
										CHANNELS 3 Xrotation Yrotation Zrotation
										JOINT newVegas:RightHandIndex3
										{
											OFFSET -3.835129 0.000000 0.000000
											CHANNELS 3 Xrotation Yrotation Zrotation
											End Site
											{
												OFFSET 0.034599 3.816971 0.371180
											}
										}
									}
								}
								JOINT newVegas:RightHandMiddle1
								{
									OFFSET -18.476105 0.000000 0.000000
									CHANNELS 3 Xrotation Yrotation Zrotation
									JOINT newVegas:RightHandMiddle2
									{
										OFFSET -3.324875 0.000000 0.000000
										CHANNELS 3 Xrotation Yrotation Zrotation
										JOINT newVegas:RightHandMiddle3
										{
											OFFSET -4.596550 0.000000 0.000000
											CHANNELS 3 Xrotation Yrotation Zrotation
											End Site
											{
												OFFSET -0.057701 4.578827 0.399218
											}
										}
									}
								}
								JOINT newVegas:RightHandRing1
								{
									OFFSET -17.732719 0.121887 -4.201567
									CHANNELS 3 Xrotation Yrotation Zrotation
									JOINT newVegas:RightHandRing2
									{
										OFFSET -2.733170 0.000000 0.000000
										CHANNELS 3 Xrotation Yrotation Zrotation
										JOINT newVegas:RightHandRing3
										{
											OFFSET -3.178268 0.000000 0.000000
											CHANNELS 3 Xrotation Yrotation Zrotation
											End Site
											{
												OFFSET -0.119102 3.170624 0.185394
											}
										}
									}
								}
								JOINT newVegas:RightHandPinky1
								{
									OFFSET -15.989624 -0.606689 -7.535461
									CHANNELS 3 Xrotation Yrotation Zrotation
									JOINT newVegas:RightHandPinky2
									{
										OFFSET -2.538986 0.000000 0.000000
										CHANNELS 3 Xrotation Yrotation Zrotation
										JOINT newVegas:RightHandPinky3
										{
											OFFSET -2.593102 0.000000 0.000000
											CHANNELS 3 Xrotation Yrotation Zrotation
											End Site
											{
												OFFSET 0.150902 2.584198 0.152708
											}
										}
									}
								}
							}
							JOINT newVegas:Right_CapeC
							{
								OFFSET -15.715958 -8.608795 -6.935905
								CHANNELS 3 Xrotation Yrotation Zrotation
								JOINT newVegas:Right_CapeC1
								{
									OFFSET 0.000000 -8.688499 0.000000
									CHANNELS 3 Xrotation Yrotation Zrotation
									End Site
									{
										OFFSET 0.000000 8.688499 0.000000
									}
								}
							}
							JOINT newVegas:Right_Sleeve
							{
								OFFSET -0.267448 -0.649994 0.577675
								CHANNELS 3 Xrotation Yrotation Zrotation
								End Site
								{
									OFFSET 0.000000 15.991302 0.000000
								}
							}
						}
						JOINT newVegas:Right_CapeA
						{
							OFFSET -5.115540 -8.608795 -10.395824
							CHANNELS 3 Xrotation Yrotation Zrotation
							JOINT newVegas:Right_CapeA1
							{
								OFFSET 0.000000 -8.688499 0.000000
								CHANNELS 3 Xrotation Yrotation Zrotation
								End Site
								{
									OFFSET 0.000000 8.688499 0.000000
								}
							}
						}
						JOINT newVegas:Right_CapeB
						{
							OFFSET -26.118187 -8.608795 -7.079266
							CHANNELS 3 Xrotation Yrotation Zrotation
							JOINT newVegas:Right_CapeB1
							{
								OFFSET 0.000000 -8.688499 0.000000
								CHANNELS 3 Xrotation Yrotation Zrotation
								End Site
								{
									OFFSET 0.000000 8.688499 0.000000
								}
							}
						}
					}
				}
				JOINT newVegas:Left_Collar
				{
					OFFSET 18.625099 8.655502 8.828100
					CHANNELS 3 Xrotation Yrotation Zrotation
					JOINT newVegas:Left_Collar1
					{
						OFFSET 14.783401 10.540405 -1.259500
						CHANNELS 3 Xrotation Yrotation Zrotation
						End Site
						{
							OFFSET 0.000000 18.199875 0.000000
						}
					}
				}
				JOINT newVegas:Collar_Back
				{
					OFFSET 0.000000 15.630707 -20.132601
					CHANNELS 3 Xrotation Yrotation Zrotation
					End Site
					{
						OFFSET 0.000000 22.523010 0.000000
					}
				}
				JOINT newVegas:Left_Peck
				{
					OFFSET 17.239599 -5.132599 25.482599
					CHANNELS 3 Xrotation Yrotation Zrotation
					End Site
					{
						OFFSET 0.000000 22.523010 0.000000
					}
				}
				JOINT newVegas:Right_Peck
				{
					OFFSET -17.239599 -5.132202 25.482599
					CHANNELS 3 Xrotation Yrotation Zrotation
					End Site
					{
						OFFSET 0.000000 22.523010 0.000000
					}
				}
				JOINT newVegas:Right_Collar
				{
					OFFSET -18.625099 8.655792 8.828100
					CHANNELS 3 Xrotation Yrotation Zrotation
					JOINT newVegas:Right_Collar1
					{
						OFFSET -14.783401 10.539993 -1.259500
						CHANNELS 3 Xrotation Yrotation Zrotation
						End Site
						{
							OFFSET 0.000000 18.199631 0.000000
						}
					}
				}
			}
		}
		JOINT newVegas:Belly
		{
			OFFSET 0.000000 -6.540398 9.014299
			CHANNELS 3 Xrotation Yrotation Zrotation
			End Site
			{
				OFFSET 0.000000 11.566666 0.000000
			}
		}
	}
	JOINT newVegas:ElvisFacialAnim_Joint
	{
		OFFSET 1.000000 -95.330101 -8.825800
		CHANNELS 3 Xrotation Yrotation Zrotation
		End Site
		{
			OFFSET 0.000000 35.315800 0.000000
		}
	}
}
MOTION
Frames: 4
Frame Time: 0.033333
0.897613 89.020569 4.376828 -1.500788 6.264450 2.693932 -0.000000 0.000000 -0.000000 -26.897936 -8.346901 12.986413 27.874579 -0.962521 -1.107939 0.126405 -2.765183 -16.824136 0.000000 -0.000000 -0.000000 -0.000000 -0.000000 -0.000000 -18.968441 -11.346702 -22.694577 44.801034 2.119627 1.788280 -22.724639 -9.831683 12.617443 -0.000000 -0.000000 -0.000000 0.000000 -0.000000 -0.000000 5.550165 -0.029706 -0.187660 11.100323 0.009741 -0.734989 11.100324 0.009741 -0.734989 -2.094294 -0.354148 -0.652400 -2.094291 -0.354150 -0.652400 0.000001 0.000000 0.000000 -2.094288 -0.354151 -0.652400 -2.094295 -0.354145 -0.652400 0.000001 -0.000001 -0.000000 0.000001 0.000000 0.000000 9.458447 -6.444344 -14.996462 -9.688695 10.601555 -35.774506 0.001820 -55.255937 0.168462 23.869196 -12.510001 16.445970 7.350858 -14.484220 -10.934839 -1.067069 0.182830 1.946076 0.000001 -0.000005 0.000002 5.776130 -9.584526 -10.641317 0.033767 0.666528 -10.636478 0.000000 0.000002 0.000002 1.641875 7.127215 -4.239641 -0.187945 -0.789351 -15.969018 0.000004 -0.000003 0.000003 1.677308 11.039969 -8.046047 -0.183066 -2.876878 -23.912152 0.000000 -0.000001 0.000000 0.734578 28.047571 -16.218747 -0.849520 -6.142200 -29.148259 0.000004 -0.000005 -0.000001 0.000001 -0.000003 0.000002 0.000001 -0.000003 0.000002 0.000000 -0.000003 0.000002 -0.000001 0.000000 0.000001 -0.000001 -0.000000 -0.000002 -0.000001 0.000000 0.000001 -0.000001 -0.000000 0.000002 -3.413141 0.044908 -0.357067 -8.521083 -11.378036 60.672598 -0.093807 56.128866 -0.117897 33.242275 -12.830431 -17.731899 -4.978390 12.391670 9.407258 -1.210141 -0.220438 -2.121001 0.000000 0.000003 -0.000004 10.258619 13.576576 6.067482 0.012526 -0.647887 4.076591 -0.000001 0.000001 0.000004 -1.738475 -1.670984 3.393794 -0.252715 0.798093 21.448254 -0.000001 0.000001 -0.000001 -0.824259 -13.700961 18.348849 -0.242215 2.213617 16.221185 -0.000004 0.000003 -0.000005 -4.380757 -23.900615 30.060291 -0.233907 5.125292 12.870319 0.000001 -0.000000 0.000001 -0.000001 0.000000 0.000001 -0.000001 -0.000002 0.000002 -0.000001 0.000000 0.000000 -0.000001 0.000000 0.000002 -0.000001 0.000001 0.000002 -0.000001 0.000000 0.000002 -0.000001 0.000001 0.000003 -0.000000 0.000000 -0.000000 -0.000000 0.000000 -0.000000 -0.000000 0.000000 -0.000000 -0.000000 0.000000 -0.000000 -0.000000 0.000000 -0.000000 -0.000000 0.000000 -0.000000 -0.000000 0.000000 -0.000000 0.000000 -0.000000 0.000000 -0.000000 0.000000 -0.000000 
0.714424 88.915527 4.476373 -1.718672 6.489020 3.102081 -0.000000 0.000000 -0.000000 -26.113070 -10.244757 12.260346 27.507410 -0.844799 -1.090713 0.177178 -1.073084 -17.424146 -0.000000 -0.000000 -0.000000 -0.000000 -0.000000 -0.000001 -19.316482 -11.006641 -23.202677 46.161909 2.239778 1.843035 -23.202672 -10.000893 12.554359 0.000000 0.000002 0.000000 0.000000 -0.000001 -0.000000 5.485538 -0.026784 -0.269324 10.971078 0.006136 -0.941753 10.971077 0.006137 -0.941754 -2.081239 -0.360699 -0.655617 -2.081228 -0.360699 -0.655616 0.000001 0.000000 0.000000 -2.081237 -0.360703 -0.655616 -2.081234 -0.360692 -0.655617 0.000002 -0.000001 0.000000 0.000001 0.000000 0.000000 9.464860 -6.387442 -14.954668 -9.444027 10.438497 -35.571123 0.002945 -55.453835 0.168376 22.564438 -12.326980 16.501839 7.487635 -14.115377 -11.114500 -1.067071 0.182832 1.946079 0.000003 0.000000 0.000001 5.776129 -9.584530 -10.641317 0.033765 0.666524 -10.636467 -0.000003 0.000001 0.000001 1.641877 7.127206 -4.239643 -0.187946 -0.789350 -15.969010 0.000000 0.000000 0.000000 1.677311 11.039962 -8.046050 -0.183067 -2.876875 -23.912147 0.000001 -0.000001 -0.000001 0.734584 28.047561 -16.218749 -0.849521 -6.142208 -29.148256 0.000001 -0.000003 0.000001 0.000000 0.000000 -0.000000 0.000000 0.000000 -0.000000 -0.000000 0.000000 -0.000001 0.000000 0.000001 0.000001 -0.000000 0.000000 -0.000000 0.000000 0.000001 0.000001 -0.000000 -0.000000 0.000002 -3.393978 -0.175538 -0.663579 -7.893233 -11.606666 61.250896 -0.094387 56.205111 -0.117339 33.122671 -13.040179 -17.493854 -4.978385 12.391672 9.407252 -1.210140 -0.220438 -2.121006 0.000001 -0.000004 -0.000001 10.258622 13.576576 6.067480 0.012524 -0.647890 4.076586 -0.000002 -0.000003 -0.000000 -1.738471 -1.670982 3.393792 -0.252717 0.798090 21.448254 -0.000005 0.000000 0.000002 -0.824255 -13.700960 18.348849 -0.242210 2.213619 16.221185 -0.000001 -0.000001 -0.000001 -4.380750 -23.900611 30.060298 -0.233907 5.125295 12.870319 -0.000000 -0.000000 -0.000001 -0.000002 0.000001 -0.000003 -0.000002 -0.000001 -0.000001 -0.000002 0.000001 -0.000001 0.000001 -0.000001 -0.000001 0.000001 -0.000001 -0.000001 0.000001 -0.000001 -0.000001 0.000001 -0.000001 0.000001 -0.000000 -0.000000 -0.000000 -0.000000 -0.000000 -0.000000 -0.000000 -0.000000 -0.000000 -0.000000 -0.000000 -0.000000 -0.000000 -0.000000 -0.000000 -0.000000 -0.000000 -0.000000 -0.000000 -0.000000 -0.000000 0.000000 -0.000000 0.000000 -0.000000 0.000000 -0.000000 
0.297366 88.669876 4.572224 -2.080420 6.497515 3.581495 0.000000 0.000001 0.000000 -25.083023 -13.128589 11.527802 27.496176 -0.699862 -1.088798 -0.045524 1.548219 -18.459131 0.000000 -0.000000 0.000000 -0.000000 0.000000 0.000002 -21.157694 -9.814357 -24.456476 49.449955 2.620709 1.988575 -22.279688 -9.341301 14.060767 -0.000000 -0.000001 0.000000 -0.000001 -0.000000 0.000000 5.426964 0.053861 -0.430881 10.855413 0.146789 -1.329140 10.855419 0.146789 -1.329140 -2.073571 -0.380097 -0.675135 -2.073564 -0.380099 -0.675135 0.000000 -0.000000 0.000000 -2.073490 -0.380094 -0.675135 -2.073553 -0.380095 -0.675135 -0.000001 0.000000 0.000000 0.000000 -0.000000 0.000000 9.470383 -6.257377 -14.971708 -9.182086 9.985679 -34.495778 0.012933 -56.761222 0.177060 19.840436 -11.973327 15.605664 8.026249 -12.079309 -13.312449 -1.067069 0.182830 1.946081 -0.000001 0.000002 -0.000002 5.776128 -9.584530 -10.641319 0.033769 0.666525 -10.636467 0.000004 0.000002 -0.000000 1.641877 7.127205 -4.239644 -0.187950 -0.789347 -15.969011 0.000005 -0.000001 0.000002 1.677308 11.039961 -8.046049 -0.183066 -2.876876 -23.912147 -0.000003 -0.000001 -0.000001 0.734584 28.047559 -16.218749 -0.849524 -6.142206 -29.148263 0.000001 -0.000002 0.000001 0.000001 0.000001 0.000003 0.000001 0.000001 0.000003 0.000000 0.000001 0.000002 -0.000000 0.000003 0.000002 -0.000001 0.000003 0.000000 -0.000000 0.000003 0.000002 -0.000001 0.000003 0.000002 -3.347876 -0.689565 -1.029892 -6.465377 -11.914429 62.166456 -0.090127 57.414140 -0.121211 33.471704 -13.182123 -16.954162 -4.978388 12.391669 9.407256 -1.210142 -0.220438 -2.121005 0.000000 -0.000003 0.000003 10.258622 13.576578 6.067480 0.012521 -0.647890 4.076584 -0.000002 -0.000001 0.000003 -1.738472 -1.670984 3.393789 -0.252716 0.798093 21.448252 -0.000002 0.000000 -0.000000 -0.824256 -13.700959 18.348851 -0.242218 2.213618 16.221194 -0.000002 0.000001 -0.000001 -4.380751 -23.900608 30.060294 -0.233912 5.125294 12.870321 0.000000 0.000002 -0.000005 -0.000002 0.000001 0.000000 -0.000002 -0.000000 -0.000001 -0.000002 0.000000 0.000002 0.000000 0.000003 0.000001 0.000000 0.000002 0.000003 0.000000 0.000003 0.000001 0.000000 0.000002 0.000004 0.000001 -0.000001 0.000001 0.000001 -0.000001 0.000001 0.000001 -0.000001 0.000001 0.000001 -0.000001 0.000001 0.000001 -0.000001 0.000001 0.000001 -0.000001 0.000001 0.000001 -0.000001 0.000001 0.000000 -0.000000 -0.000000 0.000000 0.000001 0.000000 
-0.460541 88.103226 4.693691 -2.688015 6.521458 3.853017 0.000000 0.000000 -0.000000 -24.678493 -15.701352 11.477979 29.035739 -0.657690 -1.154880 -1.008122 3.407212 -19.733839 0.000000 -0.000000 -0.000000 -0.000000 0.000000 0.000001 -24.015210 -8.319738 -25.910143 54.814713 2.793617 2.156331 -20.945639 -7.826342 16.160086 0.000000 -0.000001 0.000000 0.000002 0.000000 0.000000 5.381217 0.198093 -0.651164 10.767539 0.415352 -1.786726 10.767552 0.415354 -1.786725 -2.073373 -0.419136 -0.752208 -2.073378 -0.419141 -0.752207 0.000000 -0.000000 0.000000 -2.073377 -0.419143 -0.752207 -2.073301 -0.419138 -0.752208 0.000001 0.000000 0.000000 0.000000 -0.000000 0.000000 9.463260 -6.060125 -15.201119 -8.972594 9.624851 -31.877046 0.044210 -60.534689 0.207528 17.242427 -11.634622 14.231921 8.803195 -10.248779 -14.267679 -1.067072 0.182835 1.946074 0.000003 0.000000 -0.000004 5.776130 -9.584527 -10.641314 0.033767 0.666532 -10.636473 -0.000002 0.000002 -0.000003 1.641876 7.127211 -4.239640 -0.187945 -0.789347 -15.969016 -0.000001 -0.000003 -0.000001 1.677309 11.039968 -8.046044 -0.183062 -2.876876 -23.912144 -0.000003 -0.000001 0.000003 0.734585 28.047562 -16.218744 -0.849523 -6.142204 -29.148259 0.000004 -0.000003 0.000002 -0.000001 0.000001 -0.000002 -0.000001 0.000001 -0.000002 -0.000002 0.000001 -0.000002 -0.000000 0.000003 0.000001 -0.000001 0.000002 -0.000001 -0.000000 0.000003 0.000001 -0.000000 0.000003 0.000001 -3.264652 -1.647612 -1.461872 -3.971301 -12.542424 63.255290 -0.078778 60.126360 -0.132129 33.320562 -13.330618 -16.426573 -4.978387 12.391675 9.407259 -1.210142 -0.220439 -2.121001 0.000001 -0.000003 0.000001 10.258621 13.576575 6.067480 0.012526 -0.647887 4.076587 -0.000002 -0.000003 0.000002 -1.738472 -1.670983 3.393793 -0.252716 0.798088 21.448252 0.000000 0.000001 -0.000002 -0.824257 -13.700959 18.348851 -0.242212 2.213619 16.221187 0.000003 0.000001 0.000002 -4.380751 -23.900613 30.060301 -0.233909 5.125289 12.870319 -0.000002 0.000002 -0.000000 -0.000002 0.000004 0.000001 -0.000002 0.000004 0.000001 -0.000002 0.000004 0.000003 -0.000000 0.000002 0.000004 -0.000000 0.000002 0.000004 -0.000000 0.000002 0.000004 -0.000000 0.000002 0.000006 0.000000 -0.000000 0.000000 0.000000 -0.000000 0.000000 0.000000 -0.000000 0.000000 0.000000 -0.000000 0.000000 0.000000 -0.000000 0.000000 0.000000 -0.000000 0.000000 0.000000 -0.000000 0.000000 0.000000 0.000000 -0.000000 0.000000 0.000000 -0.000000 
